<mxfile host="app.diagrams.net" modified="2024-02-29T16:52:37.692Z" agent="Mozilla/5.0 (Windows NT 10.0; Win64; x64; rv:123.0) Gecko/20100101 Firefox/123.0" etag="MxtUbRRd8rBi8PpvLMIz" version="24.0.0" type="github">
  <diagram id="prtHgNgQTEPvFCAcTncT" name="Page-1">
    <mxGraphModel dx="1290" dy="605" grid="1" gridSize="10" guides="1" tooltips="1" connect="1" arrows="1" fold="1" page="1" pageScale="1" pageWidth="827" pageHeight="1169" math="0" shadow="0">
      <root>
        <mxCell id="0" />
        <mxCell id="1" parent="0" />
        <mxCell id="Ph-Yry3BAkA_j3NdTSEP-2" value="USER" style="swimlane;whiteSpace=wrap;html=1;" vertex="1" parent="1">
          <mxGeometry x="414" y="120" width="306" height="480" as="geometry" />
        </mxCell>
        <mxCell id="Ph-Yry3BAkA_j3NdTSEP-7" style="edgeStyle=orthogonalEdgeStyle;rounded=0;orthogonalLoop=1;jettySize=auto;html=1;entryX=0.5;entryY=0;entryDx=0;entryDy=0;fontFamily=Helvetica;fontSize=12;fontColor=default;" edge="1" parent="Ph-Yry3BAkA_j3NdTSEP-2" source="Ph-Yry3BAkA_j3NdTSEP-5" target="Ph-Yry3BAkA_j3NdTSEP-6">
          <mxGeometry relative="1" as="geometry" />
        </mxCell>
        <mxCell id="Ph-Yry3BAkA_j3NdTSEP-5" value="" style="ellipse;whiteSpace=wrap;html=1;aspect=fixed;color:black;fillColor=#000000;" vertex="1" parent="Ph-Yry3BAkA_j3NdTSEP-2">
          <mxGeometry x="136" y="40" width="30" height="30" as="geometry" />
        </mxCell>
        <mxCell id="Ph-Yry3BAkA_j3NdTSEP-9" style="edgeStyle=orthogonalEdgeStyle;rounded=0;orthogonalLoop=1;jettySize=auto;html=1;exitX=0.5;exitY=1;exitDx=0;exitDy=0;entryX=0.5;entryY=0;entryDx=0;entryDy=0;fontFamily=Helvetica;fontSize=12;fontColor=default;" edge="1" parent="Ph-Yry3BAkA_j3NdTSEP-2" source="Ph-Yry3BAkA_j3NdTSEP-6" target="Ph-Yry3BAkA_j3NdTSEP-8">
          <mxGeometry relative="1" as="geometry" />
        </mxCell>
        <mxCell id="Ph-Yry3BAkA_j3NdTSEP-6" value="Enter User Details" style="rounded=1;whiteSpace=wrap;html=1;strokeColor=default;align=center;verticalAlign=middle;fontFamily=Helvetica;fontSize=12;fontColor=default;fillColor=default;" vertex="1" parent="Ph-Yry3BAkA_j3NdTSEP-2">
          <mxGeometry x="101" y="110" width="100" height="60" as="geometry" />
        </mxCell>
        <mxCell id="Ph-Yry3BAkA_j3NdTSEP-8" value="verify user details" style="rounded=1;whiteSpace=wrap;html=1;strokeColor=default;align=center;verticalAlign=middle;fontFamily=Helvetica;fontSize=12;fontColor=default;fillColor=default;" vertex="1" parent="Ph-Yry3BAkA_j3NdTSEP-2">
          <mxGeometry x="103" y="200" width="100" height="60" as="geometry" />
        </mxCell>
        <mxCell id="Ph-Yry3BAkA_j3NdTSEP-3" value="SERVER" style="swimlane;whiteSpace=wrap;html=1;" vertex="1" parent="1">
          <mxGeometry x="120" y="120" width="294" height="480" as="geometry" />
        </mxCell>
        <mxCell id="Ph-Yry3BAkA_j3NdTSEP-10" value="Authenticator" style="rounded=1;whiteSpace=wrap;html=1;strokeColor=default;align=center;verticalAlign=middle;fontFamily=Helvetica;fontSize=12;fontColor=default;fillColor=default;" vertex="1" parent="Ph-Yry3BAkA_j3NdTSEP-3">
          <mxGeometry x="90" y="110" width="120" height="60" as="geometry" />
        </mxCell>
      </root>
    </mxGraphModel>
  </diagram>
</mxfile>
